<svg xmlns="http://www.w3.org/2000/svg"  viewBox="0 0 64 64" width="50px" height="50px"><path d="M 42.708984 0.013671875 A 1 1 0 0 0 42.076172 0.29296875 L 39.412109 2.9550781 L 38.099609 1.640625 A 1 1 0 0 0 36.685547 1.640625 L 1.640625 36.683594 A 1 1 0 0 0 1.640625 38.097656 L 2.9550781 39.412109 L 0.29296875 42.076172 A 1 1 0 1 0 1.7070312 43.490234 L 4.3691406 40.826172 L 6.3242188 42.783203 L 3.6621094 45.445312 A 1 1 0 1 0 5.0761719 46.859375 L 7.7382812 44.199219 L 9.6992188 46.152344 L 7.03125 48.814453 A 1 1 0 1 0 8.4453125 50.228516 L 11.109375 47.566406 L 13.064453 49.521484 L 10.400391 52.183594 A 1.0012632 1.0012632 0 0 0 11.816406 53.599609 L 14.478516 50.9375 L 16.433594 52.892578 L 13.771484 55.556641 A 1 1 0 1 0 15.185547 56.970703 L 17.847656 54.306641 L 19.800781 56.261719 L 17.138672 58.923828 A 1 1 0 1 0 18.552734 60.337891 L 21.214844 57.675781 L 23.169922 59.630859 L 20.509766 62.292969 A 1 1 0 1 0 21.923828 63.707031 L 24.587891 61.044922 L 25.900391 62.359375 A 1 1 0 0 0 27.314453 62.359375 L 62.359375 27.316406 A 1 1 0 0 0 62.359375 25.902344 L 61.044922 24.587891 L 63.707031 21.923828 A 1 1 0 0 0 63.707031 20.509766 A 1 1 0 0 0 62.292969 20.509766 L 59.630859 23.173828 L 57.675781 21.216797 L 60.337891 18.554688 A 1 1 0 0 0 58.923828 17.140625 L 56.261719 19.800781 L 54.304688 17.845703 L 56.96875 15.181641 A 1 1 0 0 0 55.554688 13.767578 L 52.890625 16.431641 L 50.935547 14.474609 L 53.599609 11.816406 A 1.0012632 1.0012632 0 0 0 52.183594 10.400391 L 49.521484 13.0625 L 47.566406 11.107422 L 50.228516 8.4433594 A 1 1 0 1 0 48.814453 7.0292969 L 46.152344 9.6992188 L 44.199219 7.7382812 L 46.861328 5.0761719 A 1 1 0 0 0 45.447266 3.6621094 L 42.783203 6.3242188 L 40.826172 4.3691406 L 43.490234 1.7070312 A 1 1 0 0 0 42.708984 0.013671875 z M 37.390625 3.7617188 L 60.238281 26.609375 L 26.607422 60.238281 L 3.7617188 37.390625 L 37.390625 3.7617188 z M 32.974609 14.310547 C 32.595811 14.324813 32.216563 14.357188 31.835938 14.414062 A 5.786 5.786 0 0 0 27.935547 16.839844 A 5.969 5.969 0 0 0 26.861328 20.09375 A 7.381 7.381 0 0 0 21.449219 22.265625 L 10.400391 33.314453 A 1 1 0 0 0 10.400391 34.728516 A 3.77 3.77 0 0 1 10.400391 40.054688 A 1 1 0 0 0 10.400391 41.46875 L 22.53125 53.599609 A 1 1 0 0 0 23.945312 53.599609 A 3.857 3.857 0 0 1 29.271484 53.599609 A 1 1 0 0 0 30.685547 53.599609 L 41.734375 42.550781 A 7.4 7.4 0 0 0 43.90625 37.136719 A 5.971 5.971 0 0 0 47.160156 36.060547 A 5.776 5.776 0 0 0 49.580078 32.160156 C 50.034078 29.126156 49.027672 26.122703 48.138672 23.470703 C 47.300672 20.980703 46.583203 18.830859 47.533203 17.880859 A 1 1 0 0 0 46.119141 16.466797 C 45.169141 17.416797 43.024969 16.694375 40.542969 15.859375 C 38.218969 15.078 35.626201 14.210687 32.974609 14.310547 z M 33.107422 16.308594 C 35.387508 16.235312 37.769297 17.041391 39.904297 17.759766 A 15.616 15.616 0 0 0 45.09375 18.914062 A 15.439 15.439 0 0 0 46.242188 24.107422 C 47.058188 26.541422 47.984609 29.305281 47.599609 31.863281 A 3.794 3.794 0 0 1 46.009766 34.423828 A 3.9 3.9 0 0 1 42.976562 35.0625 A 1 1 0 0 0 41.800781 36.240234 A 5.412 5.412 0 0 1 40.318359 41.140625 L 29.917969 51.539062 A 5.781 5.781 0 0 0 23.302734 51.539062 L 12.462891 40.699219 A 5.78 5.78 0 0 0 12.462891 34.083984 L 22.861328 23.683594 A 5.416 5.416 0 0 1 27.761719 22.201172 A 1 1 0 0 0 28.9375 21.019531 A 3.894 3.894 0 0 1 29.574219 17.990234 A 3.8 3.8 0 0 1 32.136719 16.396484 C 32.457219 16.347359 32.781695 16.319063 33.107422 16.308594 z"/></svg>