<svg xmlns="http://www.w3.org/2000/svg"  viewBox="0 0 50 50" width="50px" height="50px"><path d="M 6.5 0 C 5.867188 0 5.722656 0.3125 5.59375 0.46875 C 5.464844 0.625 5.371094 0.773438 5.28125 0.9375 C 5.105469 1.265625 4.9375 1.667969 4.75 2.15625 C 4.375 3.136719 3.933594 4.457031 3.53125 5.875 C 2.824219 8.371094 2.175781 11.136719 2.03125 13.1875 C 0.859375 13.597656 0 14.699219 0 16 C 0 17.292969 0.84375 18.394531 2 18.8125 L 2 49 C 2 49.550781 2.449219 50 3 50 L 20 50 C 20.550781 50 21 49.550781 21 49 L 21 45.3125 C 21 43.917969 22.007813 42.523438 23.15625 41.5 C 24.066406 40.6875 24.664063 40.410156 25 40.21875 C 25.335938 40.410156 25.933594 40.6875 26.84375 41.5 C 27.992188 42.523438 29 43.917969 29 45.3125 L 29 49 C 29 49.550781 29.449219 50 30 50 L 47 50 C 47.550781 50 48 49.550781 48 49 L 48 18.8125 C 49.15625 18.394531 50 17.292969 50 16 C 50 14.6875 49.121094 13.589844 47.9375 13.1875 C 47.796875 11.121094 47.183594 8.355469 46.46875 5.84375 C 46.066406 4.425781 45.625 3.132813 45.25 2.15625 C 45.0625 1.667969 44.894531 1.265625 44.71875 0.9375 C 44.628906 0.773438 44.535156 0.625 44.40625 0.46875 C 44.277344 0.3125 44.132813 0 43.5 0 C 42.867188 0 42.722656 0.3125 42.59375 0.46875 C 42.464844 0.625 42.371094 0.773438 42.28125 0.9375 C 42.105469 1.265625 41.9375 1.667969 41.75 2.15625 C 41.375 3.136719 40.933594 4.457031 40.53125 5.875 C 39.820313 8.386719 39.171875 11.136719 39.03125 13.1875 C 37.859375 13.597656 37 14.699219 37 16 C 37 17.292969 37.84375 18.394531 39 18.8125 L 39 29 L 37.96875 29 C 37.667969 23.796875 35.027344 20.671875 32.28125 18.6875 C 30.824219 17.632813 29.34375 16.859375 28.15625 16.1875 C 26.96875 15.515625 26.109375 14.894531 25.84375 14.46875 C 25.644531 14.148438 25.28125 13.96875 24.90625 14 C 24.875 14 24.84375 14 24.8125 14 C 24.539063 14.058594 24.300781 14.226563 24.15625 14.46875 C 23.890625 14.898438 23.03125 15.515625 21.84375 16.1875 C 20.65625 16.859375 19.175781 17.632813 17.71875 18.6875 C 14.972656 20.671875 12.332031 23.796875 12.03125 29 L 11 29 L 11 18.8125 C 12.15625 18.394531 13 17.292969 13 16 C 13 14.699219 12.140625 13.597656 10.96875 13.1875 C 10.824219 11.125 10.175781 8.335938 9.46875 5.84375 C 9.066406 4.425781 8.625 3.132813 8.25 2.15625 C 8.0625 1.667969 7.894531 1.265625 7.71875 0.9375 C 7.628906 0.773438 7.535156 0.625 7.40625 0.46875 C 7.277344 0.3125 7.132813 0 6.5 0 Z M 6.5 3.15625 C 6.824219 4.027344 7.171875 5.144531 7.53125 6.40625 C 8.183594 8.699219 8.730469 11.269531 8.90625 13 L 4.09375 13 C 4.269531 11.277344 4.816406 8.699219 5.46875 6.40625 C 5.828125 5.140625 6.175781 4.027344 6.5 3.15625 Z M 43.5 3.15625 C 43.824219 4.027344 44.171875 5.144531 44.53125 6.40625 C 45.179688 8.683594 45.726563 11.265625 45.90625 13 L 41.09375 13 C 41.273438 11.273438 41.820313 8.6875 42.46875 6.40625 C 42.828125 5.140625 43.175781 4.027344 43.5 3.15625 Z M 2.84375 15 C 2.886719 15.003906 2.925781 15.003906 2.96875 15 C 2.980469 15 2.988281 15 3 15 C 3.5625 15 4 15.4375 4 16 C 4 16.519531 3.625 16.90625 3.125 16.96875 C 3.113281 16.96875 3.105469 16.96875 3.09375 16.96875 C 3.03125 16.960938 2.96875 16.960938 2.90625 16.96875 C 2.894531 16.96875 2.886719 16.96875 2.875 16.96875 C 2.375 16.90625 2 16.519531 2 16 C 2 15.488281 2.355469 15.070313 2.84375 15 Z M 5.8125 15 L 7.1875 15 C 7.070313 15.3125 7 15.648438 7 16 C 7 17.292969 7.84375 18.394531 9 18.8125 L 9 29.8125 C 8.992188 29.875 8.992188 29.9375 9 30 L 9 48 L 4 48 L 4 18.8125 C 5.15625 18.394531 6 17.292969 6 16 C 6 15.648438 5.929688 15.3125 5.8125 15 Z M 9.90625 15 L 10 15 C 10.03125 15 10.0625 14.996094 10.09375 15 C 10.613281 15.046875 11 15.46875 11 16 C 11 16.53125 10.613281 16.953125 10.09375 17 C 10.0625 17 10.03125 17 10 17 C 9.4375 17 9 16.5625 9 16 C 9 15.46875 9.386719 15.046875 9.90625 15 Z M 39.90625 15 C 39.925781 15 39.949219 15 39.96875 15 C 40 15 40.03125 15 40.0625 15 C 40.597656 15.03125 41 15.457031 41 16 C 41 16.53125 40.609375 16.921875 40.09375 16.96875 C 40.03125 16.960938 39.96875 16.960938 39.90625 16.96875 C 39.894531 16.96875 39.886719 16.96875 39.875 16.96875 C 39.375 16.90625 39 16.519531 39 16 C 39 15.46875 39.386719 15.046875 39.90625 15 Z M 42.8125 15 L 44.1875 15 C 44.074219 15.316406 44 15.648438 44 16 C 44 17.292969 44.84375 18.394531 46 18.8125 L 46 48 L 41 48 L 41 30 C 41 29.96875 41 29.9375 41 29.90625 L 41 18.8125 C 42.15625 18.394531 43 17.292969 43 16 C 43 15.648438 42.925781 15.316406 42.8125 15 Z M 47 15 C 47.5625 15 48 15.4375 48 16 C 48 16.53125 47.613281 16.953125 47.09375 17 C 47.0625 17 47.03125 17 47 17 C 46.4375 17 46 16.5625 46 16 C 46 15.4375 46.4375 15 47 15 Z M 25 16.40625 C 25.621094 16.96875 26.324219 17.464844 27.15625 17.9375 C 28.394531 18.640625 29.816406 19.367188 31.125 20.3125 C 33.566406 22.078125 35.695313 24.46875 35.96875 29 L 14.03125 29 C 14.304688 24.46875 16.433594 22.078125 18.875 20.3125 C 20.183594 19.367188 21.574219 18.640625 22.8125 17.9375 C 23.644531 17.464844 24.378906 16.96875 25 16.40625 Z M 11 31 L 39 31 L 39 48 L 31 48 L 31 45.3125 C 31 43.015625 29.507813 41.238281 28.15625 40.03125 C 26.804688 38.824219 25.46875 38.125 25.46875 38.125 C 25.175781 37.96875 24.824219 37.96875 24.53125 38.125 C 24.53125 38.125 23.195313 38.824219 21.84375 40.03125 C 20.492188 41.238281 19 43.015625 19 45.3125 L 19 48 L 11 48 Z"/></svg>