<svg xmlns="http://www.w3.org/2000/svg"  viewBox="0 0 50 50" width="50px" height="50px"><path d="M 24.90625 2.125 C 24.648438 2.160156 24.417969 2.308594 24.28125 2.53125 C 24.28125 2.53125 20.769531 7.871094 17.25 14.1875 C 15.492188 17.347656 13.707031 20.75 12.375 23.875 C 11.042969 27 10.125 29.804688 10.125 32 C 10.125 40.203125 16.796875 46.875 25 46.875 C 33.203125 46.875 39.875 40.203125 39.875 32 C 39.875 29.804688 38.957031 27 37.625 23.875 C 36.292969 20.75 34.507813 17.347656 32.75 14.1875 C 29.230469 7.871094 25.71875 2.53125 25.71875 2.53125 C 25.542969 2.253906 25.230469 2.097656 24.90625 2.125 Z M 25 4.65625 C 25.609375 5.59375 28.125 9.421875 31.25 15.03125 C 32.992188 18.15625 34.707031 21.527344 36 24.5625 C 37.292969 27.597656 38.125 30.332031 38.125 32 C 38.125 39.257813 32.257813 45.125 25 45.125 C 17.742188 45.125 11.875 39.257813 11.875 32 C 11.875 30.332031 12.707031 27.597656 14 24.5625 C 15.292969 21.527344 17.007813 18.15625 18.75 15.03125 C 21.875 9.421875 24.390625 5.59375 25 4.65625 Z"/></svg>