<svg xmlns="http://www.w3.org/2000/svg"  viewBox="0 0 456.962 456.962" width="50px" height="50px"><path d="M76.023 149.178c-6.965 0-12.631 5.667-12.631 12.631s5.667 12.631 12.631 12.631 12.631-5.666 12.631-12.631S82.988 149.178 76.023 149.178zM176.609 195.808c-6.965 0-12.631 5.667-12.631 12.631s5.667 12.631 12.631 12.631 12.631-5.666 12.631-12.631S183.574 195.808 176.609 195.808zM237.025 21.012c7.488-8.447.92-21.658-10.209-20.988-6.952.418-12.268 6.415-11.85 13.366C215.632 24.485 229.502 29.497 237.025 21.012zM153.789 48.657c6.965 0 12.631-5.666 12.631-12.631s-5.666-12.631-12.631-12.631-12.631 5.667-12.631 12.631S146.824 48.657 153.789 48.657zM93.377 99.715c6.965 0 12.631-5.667 12.631-12.631s-5.666-12.631-12.631-12.631-12.631 5.666-12.631 12.631S86.412 99.715 93.377 99.715zM78.746 135.714c6.965 0 12.631-5.666 12.631-12.631s-5.667-12.631-12.631-12.631-12.631 5.667-12.631 12.631S71.781 135.714 78.746 135.714zM211.918 181.177c-6.965 0-12.631 5.666-12.631 12.631s5.667 12.631 12.631 12.631 12.631-5.667 12.631-12.631S218.883 181.177 211.918 181.177zM188.969 34.026c6.965 0 12.631-5.667 12.631-12.631s-5.666-12.631-12.631-12.631-12.631 5.666-12.631 12.631S182.004 34.026 188.969 34.026zM329.851 71.488c6.965 0 12.631-5.667 12.631-12.631s-5.666-12.631-12.631-12.631-12.631 5.666-12.631 12.631S322.886 71.488 329.851 71.488zM356.869 126.193c0 6.965 5.667 12.631 12.631 12.631s12.631-5.667 12.631-12.631-5.666-12.631-12.631-12.631S356.869 119.228 356.869 126.193zM353.163 103.117c6.965 0 12.631-5.666 12.631-12.631s-5.666-12.631-12.631-12.631-12.631 5.667-12.631 12.631S346.199 103.117 353.163 103.117zM340.238 185.721A12.631 12.631 0 10340.238 210.983 12.631 12.631 0 10340.238 185.721zM315.22 154.402c-6.965 0-12.631 5.667-12.631 12.631s5.666 12.631 12.631 12.631 12.631-5.666 12.631-12.631S322.184 154.402 315.22 154.402zM266.546 27.905c6.965 0 12.631-5.666 12.631-12.631s-5.666-12.631-12.631-12.631-12.631 5.667-12.631 12.631S259.581 27.905 266.546 27.905zM302.872 42.536c6.965 0 12.631-5.667 12.631-12.631s-5.667-12.631-12.631-12.631-12.631 5.666-12.631 12.631S295.908 42.536 302.872 42.536zM278.698 141.828c-6.965 0-12.631 5.667-12.631 12.631s5.667 12.631 12.631 12.631 12.631-5.666 12.631-12.631S285.663 141.828 278.698 141.828zM244.361 185.665c6.965 0 12.631-5.666 12.631-12.631s-5.667-12.631-12.631-12.631-12.631 5.667-12.631 12.631S237.396 185.665 244.361 185.665zM365.215 164.245c0 6.965 5.667 12.631 12.631 12.631s12.631-5.667 12.631-12.631-5.666-12.631-12.631-12.631S365.215 157.28 365.215 164.245zM308.11 302.525c-13.086-6.851-23.07 14.178-30.863 20.666 1.139 5.729 7.219 14.526 15.866 18.078C301.743 332.778 318.784 308.118 308.11 302.525zM273.631 325.156c-14.976 5.102-79.215 8.341-121.582 94.239-.152 1.035-.639 5.036.14 9.194 3.464-5.923 7.905-12.223 8.137-12.55.638-.903 1.887-1.115 2.788-.479.902.638 1.116 1.886.479 2.788-2.964 4.204-9.019 13.303-10.994 18.133.688 2.984 2.928 7.423 6.893 9.993 6.85-26.893 35.866-42.339 61.378-53.434 1.014-.439 2.192.024 2.632 1.036.44 1.013-.023 2.191-1.036 2.632-10.085 4.386-19.985 9.128-28.769 14.622-8.404 12.816-14.548 32.82-15.754 36.91 6.067 11.331 19.395 8.794 23.6 7.657 2.481-33.403 63.25-89.229 88.376-111.708C281.234 339.91 275.395 331.384 273.631 325.156zM350.055 225.373c-6.965 0-12.631 5.667-12.631 12.631s5.666 12.631 12.631 12.631 12.631-5.666 12.631-12.631S357.019 225.373 350.055 225.373zM138.43 195.808c-6.965 0-12.631 5.667-12.631 12.631s5.666 12.631 12.631 12.631 12.631-5.666 12.631-12.631S145.394 195.808 138.43 195.808zM380.938 192.84c-6.965 0-12.631 5.667-12.631 12.631s5.666 12.631 12.631 12.631 12.631-5.666 12.631-12.631S387.903 192.84 380.938 192.84zM337.592 260.753c-7.959-5.786-25.147 7.453-26.086 22.388-.885 14.107 14.38 13.419 24.056.118C341.745 274.757 342.675 264.451 337.592 260.753zM103.978 178.44c-6.965 0-12.631 5.667-12.631 12.631s5.666 12.631 12.631 12.631 12.631-5.666 12.631-12.631S110.943 178.44 103.978 178.44zM120.627 45.19c-6.965 0-12.631 5.666-12.631 12.631s5.667 12.631 12.631 12.631 12.631-5.667 12.631-12.631S127.592 45.19 120.627 45.19z"/></svg>