<svg width="180" height="180" viewBox="0 0 180 180" fill="none" xmlns="http://www.w3.org/2000/svg">
  <rect width="180" height="180" rx="36" fill="#1B3B2F"/>

  <path d="M90 30 Q110 55 115 80 Q120 105 110 130 Q100 155 90 155 Q80 155 70 130 Q60 105 65 80 Q70 55 90 30Z"
    stroke="#C9A84C" stroke-width="3" fill="none" opacity="0.4"/>

  <ellipse cx="90" cy="32" rx="10" ry="7" fill="#C9A84C"/>

  <circle cx="103" cy="50" r="11" fill="#C9A84C"/>
  <circle cx="112" cy="72" r="11" fill="#C9A84C"/>
  <circle cx="110" cy="97" r="11" fill="#C9A84C"/>
  <circle cx="100" cy="120" r="11" fill="#C9A84C"/>
  <circle cx="82" cy="137" r="11" fill="#C9A84C"/>
  <circle cx="72" cy="115" r="11" fill="#C9A84C"/>
  <circle cx="70" cy="90" r="11" fill="#C9A84C"/>
  <circle cx="76" cy="65" r="11" fill="#C9A84C"/>
  <circle cx="90" cy="45" r="11" fill="#C9A84C"/>

  <circle cx="103" cy="50" r="5" fill="#1B3B2F" opacity="0.3"/>

  <line x1="90" y1="25" x2="86" y2="17" stroke="#C9A84C" stroke-width="2.5"/>
  <line x1="90" y1="25" x2="90" y2="15" stroke="#C9A84C" stroke-width="2.5"/>
  <line x1="90" y1="25" x2="94" y2="17" stroke="#C9A84C" stroke-width="2.5"/>
</svg>
