<?xml version="1.0" encoding="iso-8859-1"?>
<!-- Generator: Adobe Illustrator 19.1.1, SVG Export Plug-In . SVG Version: 6.00 Build 0)  -->
<svg version="1.1" id="Layer_1" xmlns="http://www.w3.org/2000/svg" xmlns:xlink="http://www.w3.org/1999/xlink" x="0px" y="0px"
	 viewBox="0 0 40 40" style="enable-background:new 0 0 40 40;" xml:space="preserve">
<path style="fill:#FFEEA3;" d="M1,39h38l-4.981-2.491c-0.144-0.814-0.358-1.601-0.634-2.36l3.07-4.649l-5.552,0.333
	c-0.528-0.627-1.109-1.208-1.736-1.736l0.333-5.552l-4.649,3.07c-0.76-0.276-1.547-0.49-2.36-0.634L20,20l-2.491,4.981
	c-0.814,0.144-1.601,0.358-2.36,0.634l-4.649-3.07l0.333,5.552c-0.627,0.528-1.208,1.109-1.736,1.736L3.546,29.5l3.07,4.649
	c-0.276,0.76-0.49,1.547-0.634,2.36L1,39z"/>
<g>
	<g>
		<polygon style="fill:#F78F8F;" points="14.102,9.5 17.5,9.5 17.5,1.5 22.5,1.5 22.5,9.5 25.898,9.5 20,16.241 		"/>
	</g>
	<g>
		<path style="fill:#C74343;" d="M22,2v7v1h1h1.796L20,15.481L15.204,10H17h1V9V2H22 M23,1c-1.917,0-3.25,0-6,0v8h-4l7,8l7-8h-4V1
			L23,1z"/>
	</g>
</g>
<path style="fill:#F5CE85;" d="M20,29c-5.523,0-10,4.477-10,10h20C30,33.477,25.523,29,20,29z"/>
<path style="fill:#BA9B48;" d="M1,39h2.236l3.192-1.596l0.45-0.225l0.088-0.495c0.13-0.736,0.328-1.474,0.589-2.193l0.171-0.472
	L7.45,33.598l-1.968-2.98l3.555,0.213l0.501,0.03l0.323-0.384c0.49-0.582,1.033-1.125,1.615-1.615l0.384-0.323l-0.03-0.502
	l-0.213-3.555l2.98,1.968l0.419,0.277l0.472-0.171c0.719-0.261,1.457-0.459,2.193-0.589l0.495-0.088l0.225-0.45L20,22.236
	l1.596,3.192l0.225,0.45l0.495,0.088c0.736,0.13,1.474,0.328,2.193,0.589l0.472,0.171l0.419-0.277l2.98-1.968l-0.213,3.555
	l-0.03,0.502l0.384,0.323c0.582,0.49,1.125,1.033,1.615,1.615l0.323,0.384l0.501-0.03l3.555-0.213l-1.968,2.98l-0.277,0.419
	l0.171,0.472c0.261,0.719,0.459,1.457,0.589,2.193l0.088,0.495l0.45,0.225L36.764,39H39l-4.981-2.491
	c-0.144-0.814-0.358-1.601-0.634-2.36l3.07-4.649l-5.552,0.333c-0.528-0.627-1.109-1.208-1.736-1.736l0.333-5.552l-4.649,3.07
	c-0.76-0.276-1.547-0.49-2.36-0.634L20,20l-2.491,4.981c-0.814,0.144-1.601,0.358-2.36,0.634l-4.649-3.07l0.333,5.552
	c-0.627,0.528-1.208,1.109-1.736,1.736L3.546,29.5l3.07,4.649c-0.276,0.76-0.49,1.547-0.634,2.36L1,39z"/>
</svg>